<?xml version="1.0" standalone="no"?>
<!DOCTYPE svg PUBLIC "-//W3C//DTD SVG 20010904//EN"
 "http://www.w3.org/TR/2001/REC-SVG-20010904/DTD/svg10.dtd">
<svg version="1.0" xmlns="http://www.w3.org/2000/svg"
 width="223.000000pt" height="226.000000pt" viewBox="0 0 223.000000 226.000000"
 preserveAspectRatio="xMidYMid meet">
<metadata>
Created by potrace 1.15, written by Peter Selinger 2001-2017
</metadata>
<g transform="translate(0.000000,226.000000) scale(0.100000,-0.100000)"
fill="#000000" stroke="none">
<path d="M507 2236 c-18 -46 -29 -291 -24 -524 5 -289 20 -378 76 -454 l30
-41 -71 -36 c-39 -20 -80 -48 -91 -62 -27 -38 -11 -80 59 -152 l55 -56 -43
-21 c-69 -32 -113 -75 -179 -173 -114 -170 -275 -525 -313 -689 l-6 -27 39 14
c121 42 402 192 570 303 98 65 209 166 236 215 l18 34 63 -48 c72 -54 136 -79
162 -62 29 17 61 85 78 163 9 41 18 76 19 78 1 2 25 -10 52 -26 78 -46 138
-56 328 -55 300 1 704 64 649 101 -6 4 -49 35 -97 70 -186 136 -490 304 -634
351 -34 12 -85 21 -112 21 l-49 0 -4 80 c-4 100 -16 115 -91 113 -30 -1 -86
-12 -126 -26 l-73 -24 5 51 c8 87 -10 173 -57 271 -73 150 -264 423 -396 569
-55 59 -65 65 -73 42z m784 -913 c22 -26 16 -166 -10 -235 -40 -103 -148 -167
-247 -144 -23 5 -33 3 -37 -7 -4 -10 4 -16 28 -20 82 -13 137 -90 138 -190 1
-108 -40 -234 -83 -257 -41 -22 -180 67 -232 149 -24 38 -28 56 -28 112 0 81
12 117 47 145 25 21 25 22 5 28 -14 5 -31 0 -50 -14 -93 -69 -208 -35 -330 95
-75 79 -81 110 -29 149 49 37 159 76 217 76 74 0 161 -45 193 -100 10 -16 22
-30 26 -30 5 0 11 21 14 46 7 65 50 122 118 157 105 54 233 74 260 40z"/>
</g>
</svg>
